<?xml version="1.0" standalone="no"?>
<!DOCTYPE svg PUBLIC "-//W3C//DTD SVG 1.1//EN" "http://www.w3.org/Graphics/SVG/1.1/DTD/svg11.dtd" >
<svg xmlns="http://www.w3.org/2000/svg" xmlns:xlink="http://www.w3.org/1999/xlink" version="1.1">
<metadata></metadata>
<defs>
<font id="eilericaregular" horiz-adv-x="1228" >
<font-face units-per-em="2048" ascent="1638" descent="-410" />
<missing-glyph horiz-adv-x="573" />
<glyph horiz-adv-x="0" />
<glyph horiz-adv-x="682" />
<glyph unicode=" "  horiz-adv-x="573" />
<glyph unicode="&#x09;" horiz-adv-x="573" />
<glyph unicode="&#xa0;" horiz-adv-x="573" />
<glyph unicode="!" horiz-adv-x="573" d="M164 0v287h246v-287h-246zM184 1024v512h205v-512l-82 -512h-41z" />
<glyph unicode="&#x22;" />
<glyph unicode="#" d="M20 0l410 1536h164l-98 -369h450l98 369h164l-409 -1536h-164l102 389h-450l-103 -389h-164zM326 532h450l131 492h-450z" />
<glyph unicode="&#x26;" horiz-adv-x="1454" d="M123 481q0 105 68 193t178 135q-110 47 -178 135t-68 193q0 185 131 292t360 107h246v-182h-266q-114 0 -191 -57t-77 -160q0 -105 80 -170.5t198 -65.5h256v246l205 184v-430h143v-184h-143v-420q0 -120 123 -123q100 -3 205 0v-172q-82 -2 -267 -2q-137 0 -201.5 61 t-64.5 185v471h-256q-118 0 -198 -65.5t-80 -170.5q0 -104 78 -165.5t190 -61.5h41v-182h-21q-228 0 -359.5 111.5t-131.5 297.5z" />
<glyph unicode="'" />
<glyph unicode="(" horiz-adv-x="819" d="M164 768q0 224 72 411.5t204 300t297 117.5v-133q-81 -4 -156.5 -56t-134 -141t-94 -219.5t-35.5 -279.5t35.5 -279.5t94 -219.5t134 -141t156.5 -56v-133q-165 5 -297 117.5t-204 300t-72 411.5z" />
<glyph unicode=")" horiz-adv-x="819" d="M82 -61v133q81 4 156.5 56t134 141t94 219.5t35.5 279.5t-35.5 279.5t-94 219.5t-134 141t-156.5 56v133q165 -5 297 -117.5t204 -300t72 -411.5t-72 -411.5t-204 -300t-297 -117.5z" />
<glyph unicode="*" />
<glyph unicode="+" horiz-adv-x="1433" d="M205 410v204h409v410h205v-410h410v-204h-410v-410h-205v410h-409z" />
<glyph unicode="," horiz-adv-x="573" d="M20 -61h226q61 0 61 61v61q-21 -61 -102 -61h-41v287h246v-287q0 -81 -45.5 -122.5t-118.5 -41.5h-226v103z" />
<glyph unicode="-" horiz-adv-x="901" d="M164 512v205h614v-205h-614z" />
<glyph unicode="." horiz-adv-x="573" d="M164 0v287h246v-287h-246z" />
<glyph unicode="/" horiz-adv-x="921" d="M61 -41l615 1577h184l-614 -1577h-185z" />
<glyph unicode="0" d="M123 768q0 177 28.5 316t87.5 241t153.5 156.5t221.5 54.5t222 -54.5t153.5 -156.5t87.5 -241t29 -316q0 -176 -29 -315t-87.5 -241.5t-153.5 -157t-222 -54.5t-221.5 54.5t-153 157t-87.5 241.5t-29 315zM317 768q0 -123 15 -224t48.5 -184.5t93 -129.5t140.5 -46 t140.5 46t93 129.5t48.5 184.5t15 224t-15.5 224t-49 184t-92.5 129.5t-140 46.5t-140 -46.5t-92.5 -129.5t-49 -184t-15.5 -224z" />
<glyph unicode="1" horiz-adv-x="921" d="M82 1126v205h102q93 0 156 56.5t70 148.5h184v-1536h-205v1229z" />
<glyph unicode="2" horiz-adv-x="1136" d="M63 1024q-6 144 47 259.5t162.5 184t259.5 68.5q223 0 352.5 -137.5t129.5 -345.5q0 -111 -53.5 -236t-143.5 -238.5t-205 -215.5t-241 -179h663v-184h-921v225q106 47 226.5 139.5t225.5 205.5t174.5 244t69.5 241q0 150 -74 223.5t-203 73.5q-122 0 -198 -94.5 t-68 -233.5h-203z" />
<glyph unicode="3" horiz-adv-x="1169" d="M63 471h205q-4 -70 21.5 -126.5t70 -90.5t97.5 -52t108 -18q73 0 140 28.5t112 86t45 131.5q0 50 -25 91t-65.5 68t-95.5 46t-109.5 28.5t-113.5 12.5v184q74 4 139 18.5t123.5 42.5t92.5 75.5t34 109.5q0 110 -86.5 178t-200.5 68q-75 0 -140.5 -30t-108.5 -97t-38 -160 h-205q-7 199 135 335t357 136q216 0 354 -119.5t138 -310.5q0 -230 -269 -338q127 -46 208 -131t81 -207q0 -190 -142.5 -310t-359.5 -120q-216 0 -362.5 136.5t-139.5 334.5z" />
<glyph unicode="4" horiz-adv-x="1146" d="M61 348v330l553 858h226v-1004h245v-184h-245v-348h-205v348h-574zM176 532h459v705z" />
<glyph unicode="5" horiz-adv-x="1148" d="M84 471h205q-4 -70 21.5 -126.5t70 -90.5t97.5 -52t108 -18q117 0 201.5 83t84.5 204q0 80 -34 146t-90.5 110.5t-132 75t-155 44t-161.5 13.5h-133v164l205 512h635v-184h-512l-136 -318q111 -4 212.5 -26.5t195 -67.5t162 -109t109 -156.5t40.5 -203.5 q0 -127 -62 -234.5t-175.5 -172t-253.5 -64.5q-216 0 -362.5 136.5t-139.5 334.5z" />
<glyph unicode="6" horiz-adv-x="1146" d="M102 768q0 233 103 409.5t289.5 270t427.5 88.5v-184q-128 3 -234.5 -26.5t-180 -83t-124.5 -127.5t-74.5 -158.5t-23.5 -178.5q0 -55 2 -84q54 101 149 159t209 58q196 0 323.5 -123.5t127.5 -326.5q0 -130 -61.5 -236.5t-167 -165.5t-232.5 -59q-129 0 -236.5 60.5 t-175.5 168.5q-121 190 -121 539zM346 461q0 -115 84.5 -196t200.5 -81q117 0 195.5 77.5t78.5 199.5q0 121 -81 198.5t-199 77.5q-123 0 -201 -76.5t-78 -199.5z" />
<glyph unicode="7" horiz-adv-x="1064" d="M82 1352v184h962v-184q-15 -18 -41.5 -50t-102 -131t-144 -197t-152.5 -234.5t-144 -257.5t-101.5 -251.5t-41.5 -230.5h-215q0 115 50.5 266.5t124 293t174.5 299.5t182.5 271t167.5 222h-719z" />
<glyph unicode="8" horiz-adv-x="1230" d="M115 430q0 232 211 338q-201 110 -201 338q0 191 137.5 310.5t353.5 119.5t354 -119.5t138 -310.5q0 -227 -201 -338q211 -106 211 -338q0 -190 -142.5 -310t-359.5 -120t-359 120t-142 310zM319 430q0 -74 45 -131.5t112 -86t140 -28.5t140 28.5t112 86t45 131.5 q0 106 -86 176t-211 70t-211 -70t-86 -176zM330 1106q0 -107 81.5 -176.5t204.5 -69.5t205 69.5t82 176.5q0 110 -86.5 178t-200.5 68t-200 -68t-86 -178z" />
<glyph unicode="9" horiz-adv-x="1146" d="M51 1085q0 130 61.5 236.5t167 165.5t232.5 59q129 0 236.5 -60.5t175.5 -168.5q120 -188 120 -539q0 -174 -60 -319.5t-166.5 -245t-259 -153.5t-333.5 -50v185q156 -4 280 41.5t200.5 126.5t116.5 184.5t40 220.5q0 55 -2 84q-54 -101 -149 -159t-209 -58 q-196 0 -323.5 123.5t-127.5 326.5zM242 1085q0 -121 81 -198.5t199 -77.5q123 0 201 76.5t78 199.5q0 115 -84.5 196t-200.5 81q-117 0 -195.5 -77.5t-78.5 -199.5z" />
<glyph unicode=":" horiz-adv-x="573" d="M164 143v287h246v-287h-246zM164 696v287h246v-287h-246z" />
<glyph unicode=";" horiz-adv-x="573" d="M20 -61h226q61 0 61 61v61q-21 -61 -102 -61h-41v287h246v-287q0 -81 -45.5 -122.5t-118.5 -41.5h-226v103zM164 696v287h246v-287h-246z" />
<glyph unicode="?" horiz-adv-x="716" d="M133 1352v184q255 8 394 -90t139 -289q0 -73 -31.5 -146t-75.5 -132.5t-87.5 -117.5t-71 -122.5t-21.5 -126.5h-162q-6 80 17.5 154.5t60 132t74.5 111t65 112.5t27 115q0 107 -87.5 164.5t-240.5 50.5zM205 0v287h246v-287h-246z" />
<glyph unicode="@" horiz-adv-x="1740" d="M123 737q0 403 197.5 626.5t539.5 223.5q346 0 547 -215t201 -614q0 -245 -80.5 -378.5t-227.5 -133.5q-188 0 -215 168q-57 -84 -119.5 -126t-146.5 -42q-177 0 -272.5 129.5t-95.5 329.5q0 130 39.5 232.5t124.5 166t204 63.5q84 0 145 -41.5t111 -121.5v143h164v-676 q0 -45 20.5 -73.5t51.5 -28.5q33 0 57.5 16.5t44.5 57.5t30.5 120t10.5 195q0 176 -42 308.5t-121 214.5t-186.5 122.5t-244.5 40.5q-276 0 -430 -177.5t-154 -529.5q0 -111 13 -211.5t34 -172.5t46 -133.5t50 -101t46 -67t34 -39.5l13 -12h-184q-8 7 -22 21.5t-49.5 73.5 t-62.5 134.5t-49 211.5t-22 296zM625 705q0 -156 58 -236t167 -80q76 0 139 64t86 165v175q-23 102 -86 166.5t-139 64.5q-109 0 -167 -81.5t-58 -237.5z" />
<glyph unicode="A" horiz-adv-x="1351" d="M61 0l431 1536h368l430 -1536h-205l-94 338h-631l-94 -338h-205zM418 543h516l-258 932z" />
<glyph unicode="B" horiz-adv-x="1351" d="M164 0v1536h594q228 0 359.5 -118t131.5 -312q0 -111 -62.5 -199.5t-172.5 -138.5q110 -50 172.5 -138.5t62.5 -199.5q0 -194 -131.5 -312t-359.5 -118h-594zM369 184h409q109 0 187.5 70.5t78.5 175.5q0 106 -79.5 176t-196.5 70h-399v-492zM369 860h399q117 0 196.5 70 t79.5 176q0 105 -78.5 175.5t-187.5 70.5h-409v-492z" />
<glyph unicode="C" horiz-adv-x="1597" d="M123 768q0 195 51 348.5t142.5 251.5t216.5 148.5t276 50.5q172 0 309 -57.5t232 -181.5t125 -304h-205q-37 172 -162.5 265t-298.5 93q-212 0 -352 -168t-140 -446q0 -138 41 -255t109 -194.5t157 -121t185 -43.5q172 0 295.5 92.5t165.5 265.5h205q-30 -180 -125 -304 t-232 -181.5t-309 -57.5q-115 0 -217 31.5t-188 97t-148.5 159t-97.5 224.5t-35 287z" />
<glyph unicode="D" horiz-adv-x="1372" d="M143 0v1536h326q196 0 342 -42.5t250 -133.5t156.5 -239t52.5 -353q0 -395 -198 -581.5t-601 -186.5h-328zM348 180h144q297 0 440 147t143 441q0 302 -146.5 445t-436.5 143h-144v-1176z" />
<glyph unicode="E" horiz-adv-x="1249" d="M164 0v1536h983v-184h-778v-482h553v-204h-553v-482h798v-184h-1003z" />
<glyph unicode="F" horiz-adv-x="1167" d="M164 0v1536h983v-184h-778v-441h553v-204h-553v-707h-205z" />
<glyph unicode="G" horiz-adv-x="1597" d="M123 768q0 156 35 287t97.5 224.5t148.5 159t188 97t217 31.5q172 0 309 -57.5t232 -181.5t125 -304h-205q-37 172 -162.5 265t-298.5 93q-212 0 -352 -168t-140 -446q0 -138 41 -255t109 -194.5t157 -121t185 -43.5q86 0 165 23.5t143.5 68.5t103.5 119.5t39 166.5v113 h-441v195h635v-287q0 -120 -35 -218t-95 -165t-142.5 -113t-175.5 -67t-197 -21q-115 0 -217 31.5t-188 97t-148.5 159t-97.5 224.5t-35 287z" />
<glyph unicode="H" horiz-adv-x="1474" d="M164 0v1536h205v-666h737v666h205v-1536h-205v666h-737v-666h-205z" />
<glyph unicode="I" horiz-adv-x="573" d="M184 0v1536h205v-1536h-205z" />
<glyph unicode="J" horiz-adv-x="1146" d="M164 371v243h194v-264v-8q0 -79 60 -132q62 -56 155 -56q97 0 151 54.5t54 141.5v1186h205v-1165q0 -97 -32 -173t-88.5 -123t-130 -71t-159.5 -24t-159 24t-129.5 71t-88.5 123t-32 173z" />
<glyph unicode="K" horiz-adv-x="1331" d="M164 0v1536h205v-778l665 778h256l-635 -719q305 -363 656 -817h-246q-257 340 -541 670l-155 -178v-492h-205z" />
<glyph unicode="L" d="M164 0v1536h205v-1352h839v-184h-1044z" />
<glyph unicode="M" horiz-adv-x="1884" d="M164 0v1536h389l389 -1475l389 1475h389v-1536h-198v1475l-396 -1475h-368l-396 1475v-1475h-198z" />
<glyph unicode="N" horiz-adv-x="1454" d="M164 0v1536h389l539 -1475v1475h198v-1536h-389l-539 1475v-1475h-198z" />
<glyph unicode="O" horiz-adv-x="1679" d="M123 768q0 196 51.5 348.5t146 251t226 149t293.5 50.5t293.5 -50.5t226 -149t145.5 -251t51 -348.5t-51 -348.5t-145.5 -251t-226 -149t-293.5 -50.5t-293.5 50.5t-226 149t-146 251t-51.5 348.5zM317 768q0 -143 40 -259.5t110 -194t166 -119t207 -41.5t206.5 41.5 t165.5 119t110 194t40 259.5t-40 259.5t-110 194t-165.5 119t-206.5 41.5t-207 -41.5t-166 -119t-110 -194t-40 -259.5z" />
<glyph unicode="P" horiz-adv-x="1331" d="M164 0v1536h604q220 0 350.5 -116.5t130.5 -303.5q0 -189 -131.5 -314.5t-349.5 -125.5h-399v-676h-205zM369 881h419q116 0 186 64t70 171t-70 171.5t-186 64.5h-419v-471z" />
<glyph unicode="Q" horiz-adv-x="1699" d="M123 768q0 196 51.5 348.5t146 251t226 149t293.5 50.5t293.5 -50.5t226 -149t145.5 -251t51 -348.5q0 -291 -112 -485q78 -60 194 -140v-143h-143q-130 91 -178 129q-183 -160 -477 -160q-162 0 -293.5 50.5t-226 149t-146 251t-51.5 348.5zM317 768q0 -143 40 -259.5 t110 -194t166 -119t207 -41.5q194 0 327 118q-22 18 -58.5 47t-113 90.5t-127 102.5t-49.5 41h287q0 -2 46 -37.5t92 -70.5l46 -35q72 141 72 358q0 143 -40 259.5t-110 194t-165.5 119t-206.5 41.5t-207 -41.5t-166 -119t-110 -194t-40 -259.5z" />
<glyph unicode="R" horiz-adv-x="1331" d="M164 0v1536h614q220 0 345.5 -111.5t125.5 -298.5t-125.5 -298t-345.5 -111h-114q246 -291 544 -574v-143h-143q-116 109 -230.5 231.5t-194.5 219t-144 178t-96 125.5l-31 45v-799h-205zM369 901h430q110 0 177.5 60t67.5 165t-68 165.5t-177 60.5h-430v-451z" />
<glyph unicode="S" horiz-adv-x="1372" d="M94 451h236q-1 -6 0 -13q0 -42 22 -86q26 -52 74.5 -96t125.5 -73t165 -29q153 0 260.5 88.5t107.5 187.5q0 71 -49 129t-114 86q-87 37 -240.5 85.5t-243.5 88.5q-112 49 -177.5 138.5t-65.5 209.5q0 170 139 285t352 115q111 0 206.5 -40.5t157.5 -105.5 q60 -65 92 -148q26 -68 26 -136q0 -15 -1 -31h-204q2 20 2 39q0 97 -64 161q-77 76 -215 76q-125 0 -206 -62t-81 -142q0 -139 129 -195q78 -34 152 -60.5t160 -54.5t143 -49q142 -52 219.5 -161.5t77.5 -237.5q0 -85 -38.5 -165.5t-108 -144.5t-178 -102.5t-238.5 -38.5 q-140 0 -263.5 46.5t-202.5 118.5t-122 156q-36 71 -36 137q0 12 1 24z" />
<glyph unicode="T" horiz-adv-x="1310" d="M20 1352v184h1270v-184h-532v-1352h-205v1352h-533z" />
<glyph unicode="U" horiz-adv-x="1351" d="M154 471v1065h204v-1075q0 -78 26.5 -138.5t71.5 -96.5t101 -54t119 -18q50 0 96 11t86.5 35.5t70 59.5t47 86.5t17.5 114.5v1075h205v-1065q0 -224 -135 -363t-387 -139t-387 139t-135 363z" />
<glyph unicode="V" horiz-adv-x="1351" d="M61 1536h205l410 -1475l409 1475h205l-430 -1536h-368z" />
<glyph unicode="W" horiz-adv-x="2088" d="M61 1536h205l346 -1475l248 1475h369l246 -1475l348 1475h205l-369 -1536h-369l-246 1475l-245 -1475h-369z" />
<glyph unicode="X" horiz-adv-x="1290" d="M41 0l491 768l-491 768h231l373 -592l373 592h231l-491 -768l491 -768h-231l-373 592l-373 -592h-231z" />
<glyph unicode="Y" horiz-adv-x="1269" d="M20 1536h226l389 -811l389 811h225l-512 -1024v-512h-205v512z" />
<glyph unicode="Z" horiz-adv-x="1290" d="M82 0v307l1003 1045h-983v184h1106v-307l-1003 -1045h1003v-184h-1126z" />
<glyph unicode="\" />
<glyph unicode="^" />
<glyph unicode="_" horiz-adv-x="921" d="M51 -31h819v-205h-819v205z" />
<glyph unicode="a" horiz-adv-x="1177" d="M113 307q0 98 49.5 166t126 98t172.5 31l399 4v70q0 98 -81 156.5t-206 58.5q-108 1 -174 -67q-55 -56 -55 -114q0 -11 2 -22h-213q0 63 30.5 127t85 118t140 88t184.5 34q232 0 357 -103t125 -276v-502q0 -50 12.5 -93.5t24.5 -62.5l12 -18h-223q4 0 5 3.5t-0.5 12 t-4.5 20t-6.5 29t-7 37t-5.5 47t-2 56.5q-43 -94 -146 -159.5t-253 -65.5q-173 0 -260.5 87.5t-87.5 239.5zM307 297q0 -77 54.5 -120.5t160.5 -43.5q65 0 129.5 23.5t109 57t72 70.5t27.5 64v84q-235 -2 -409 -6q-67 -1 -105.5 -37t-38.5 -92z" />
<glyph unicode="b" horiz-adv-x="1208" d="M143 0v1536h205v-657q54 84 140 130t188 46q108 0 192 -44t135 -120.5t77 -172.5t26 -206t-26 -206t-77 -172.5t-135 -120.5t-192 -44q-99 0 -177.5 44t-150.5 132v-145h-205zM348 385q0 -71 49 -131t114 -90.5t124 -30.5q124 0 200 102t76 277t-76 277t-200 102 q-59 0 -124.5 -31t-114 -90.5t-48.5 -128.5v-256z" />
<glyph unicode="c" horiz-adv-x="1167" d="M102 512q0 110 30 206t89.5 172.5t158 120.5t224.5 44q104 0 192.5 -35t146 -92t90 -128t32.5 -145h-205q0 93 -74.5 159.5t-181.5 66.5q-137 0 -217 -100t-80 -269t80 -269t217 -100q107 0 181.5 66.5t74.5 159.5h205q0 -74 -32.5 -145t-90 -128t-146 -92t-192.5 -35 q-126 0 -224.5 44t-158 120.5t-89.5 172.5t-30 206z" />
<glyph unicode="d" horiz-adv-x="1208" d="M102 512q0 110 26 206t77 172.5t135 120.5t192 44q265 0 328 -238v719h205v-1362q0 -50 12.5 -93.5t24.5 -62.5l12 -18h-213q-5 8 -13 22q-8 12 -20 50q-10 32 -10 61v10q-72 -87 -150 -130.5t-176 -43.5q-108 0 -192 44t-135 120.5t-77 172.5t-26 206zM297 512 q0 -175 76 -277t200 -102q59 0 124 30.5t114 90.5t49 131v195q0 114 -87.5 212.5t-199.5 98.5q-124 0 -200 -102t-76 -277z" />
<glyph unicode="e" horiz-adv-x="1208" d="M102 512q0 82 17.5 158.5t57 147.5t97.5 123t145.5 83t194.5 31t196 -33t148.5 -90t97.5 -131.5t50 -158.5q6 -42 6 -85t-6 -86h-809q0 -139 90 -233.5t227 -94.5q112 0 197.5 58t85.5 147h205q0 -73 -36 -141.5t-98.5 -121t-152 -84.5t-190.5 -32q-126 0 -227.5 44 t-165 120t-97 173t-33.5 206zM303 635h629q0 101 -94.5 178.5t-223.5 77.5q-128 0 -214 -73t-97 -183z" />
<glyph unicode="f" horiz-adv-x="798" d="M41 850v174h205v266q0 117 88 181.5t219 64.5q104 0 167 -39.5t79 -105.5v-172q-14 65 -62.5 104t-122.5 39q-35 0 -70 -10.5t-64 -40t-29 -72.5v-215h204v-174h-204v-850h-205v850h-205z" />
<glyph unicode="g" horiz-adv-x="1208" d="M102 532q0 111 24.5 203.5t74.5 165t134.5 113.5t196.5 41q111 0 205 -44t123 -130v143h205v-932q0 -194 -135.5 -317t-356.5 -123q-107 0 -196.5 31t-145.5 81.5t-87 111.5t-31 124h215q-2 -11 -2 -21q0 -55 56 -105q68 -58 191 -58q125 0 207.5 65.5t89.5 179.5l2 189 q-23 -88 -123.5 -138.5t-216.5 -50.5q-211 0 -320.5 125.5t-109.5 345.5zM297 532q0 -153 76 -245t200 -92q60 0 124.5 25t113.5 78.5t49 121.5v223q0 52 -29 99.5t-72.5 79t-93 50.5t-92.5 19q-122 0 -199 -102t-77 -257z" />
<glyph unicode="h" horiz-adv-x="1177" d="M143 0v1536h205v-666q140 174 328 174q368 0 368 -430v-614h-204v594q0 160 -44 223.5t-151 63.5q-70 0 -137.5 -41t-112 -115t-47.5 -160v-565h-205z" />
<glyph unicode="i" horiz-adv-x="491" d="M143 0v1024h205v-1024h-205zM143 1208v246h205v-246h-205z" />
<glyph unicode="j" horiz-adv-x="593" d="M-102 -2q80 -172 196 -172h4q66 2 107 38t41 105v1055h205v-1090q0 -126 -76 -204t-211 -78q-78 0 -155 44t-107 109zM246 1208v246h205v-246h-205z" />
<glyph unicode="k" horiz-adv-x="1044" d="M143 0v1536h205v-958l440 446h256l-493 -494l493 -530h-245l-375 406l-76 -76v-330h-205z" />
<glyph unicode="l" horiz-adv-x="491" d="M143 164v1372h205v-1362q0 -50 12 -93.5t24 -62.5l13 -18h-213q-41 82 -41 164z" />
<glyph unicode="m" horiz-adv-x="1812" d="M143 0v1024h205v-154q68 84 143 129t175 45q241 0 309 -223q54 102 143 162.5t203 60.5q183 0 270.5 -106.5t87.5 -323.5v-614h-204v594q0 162 -40 224.5t-145 62.5q-108 0 -195 -92.5t-91 -223.5v-565h-185v614q0 267 -184 267q-108 0 -195.5 -92.5t-91.5 -223.5v-565 h-205z" />
<glyph unicode="n" horiz-adv-x="1177" d="M143 0v1024h205v-154q140 174 328 174q368 0 368 -430v-614h-204v594q0 160 -44 223.5t-151 63.5q-70 0 -137.5 -41t-112 -115t-47.5 -160v-565h-205z" />
<glyph unicode="o" horiz-adv-x="1208" d="M102 512q0 109 33 206t94.5 172.5t158.5 120t216 44.5t216 -44.5t158.5 -120t94.5 -172.5t33 -206t-33 -206t-94.5 -172.5t-158.5 -120t-216 -44.5t-216 44.5t-158.5 120t-94.5 172.5t-33 206zM297 512q0 -165 90.5 -272t216.5 -107t216.5 107t90.5 272t-90.5 272 t-216.5 107t-216.5 -107t-90.5 -272z" />
<glyph unicode="p" horiz-adv-x="1208" d="M143 -346v1370h205v-225q22 121 118.5 188.5t209.5 67.5q133 0 232.5 -76.5t148.5 -198.5t49 -268t-49 -268t-148.5 -198.5t-232.5 -76.5q-111 0 -201.5 54t-126.5 163v-532h-205zM348 381q0 -70 43.5 -128.5t104 -89t118.5 -30.5q127 0 212 103.5t85 275.5t-85 275.5 t-212 103.5q-92 0 -179 -74t-87 -178v-258z" />
<glyph unicode="q" horiz-adv-x="1208" d="M102 512q0 110 26 206t77 172.5t135 120.5t192 44q122 0 221.5 -74t106.5 -184v227h205v-1370h-205v553q-23 -97 -123.5 -167.5t-204.5 -70.5q-108 0 -192 44t-135 120.5t-77 172.5t-26 206zM297 512q0 -172 85 -275.5t212 -103.5q90 0 178 81.5t88 186.5v238 q0 57 -28.5 106.5t-70.5 80t-86.5 48t-80.5 17.5q-127 0 -212 -103.5t-85 -275.5z" />
<glyph unicode="r" horiz-adv-x="819" d="M123 0v1024h205v-309q52 150 168 247q111 93 269 93h13v-215h-61q-74 0 -145.5 -29.5t-123 -76t-84 -105.5t-36.5 -117v-512h-205z" />
<glyph unicode="s" horiz-adv-x="1028" d="M94 307h215q-1 -6 0 -12q1 -52 59 -102q66 -56 167 -56q104 0 159.5 38t55.5 101q0 44 -29.5 67.5t-99.5 43.5q-148 39 -271 88q-120 46 -184 113.5t-64 169.5q0 129 105 213t297 84q96 0 177 -29.5t131.5 -78t77.5 -108.5q24 -52 23 -106v-16h-213q1 9 1 18 q0 52 -45 100q-53 56 -152 56q-102 0 -153.5 -37.5t-51.5 -95.5q0 -36 33.5 -62.5t105.5 -52.5q131 -49 240 -78q132 -36 200 -103.5t68 -185.5q0 -134 -111.5 -220.5t-299.5 -86.5q-96 0 -181.5 30t-143.5 77q-56 48 -88 109q-28 54 -28 108v14z" />
<glyph unicode="t" horiz-adv-x="819" d="M41 850v174h207v225l203 185v-410h225v-174h-225v-563q0 -120 122 -123q18 -2 42 0t49.5 4.5t51 13.5t46.5 26.5t36.5 43.5t19.5 65v-204q-13 -32 -31 -55.5t-42 -36.5t-46 -21t-51.5 -10t-49 -2.5t-47.5 1t-39 1.5q-136 0 -200 61t-64 185v614h-207z" />
<glyph unicode="u" horiz-adv-x="1198" d="M143 451v573h205v-573q0 -169 51 -238.5t174 -69.5q108 0 194.5 89.5t92.5 224.5v567h205v-850q0 -50 12.5 -93.5t24.5 -62.5l12 -18h-213q-5 8 -13 22q-6 15 -18 55q-10 34 -10 65v10q-146 -172 -328 -172q-206 0 -297.5 122t-91.5 349z" />
<glyph unicode="v" horiz-adv-x="1105" d="M41 1024h209l303 -963l303 963h209l-348 -1024h-328z" />
<glyph unicode="w" horiz-adv-x="1720" d="M20 1024h209l273 -973l194 973h328l195 -973l272 973h209l-307 -1024h-349l-184 983l-184 -983h-348z" />
<glyph unicode="x" horiz-adv-x="1105" d="M61 0l375 514l-375 510h236l256 -350l256 350h235l-376 -510l376 -514h-225l-266 358l-266 -358h-226z" />
<glyph unicode="y" horiz-adv-x="1110" d="M41 1024h217l299 -963l299 963h213l-369 -1126q-44 -130 -149.5 -199.5t-259.5 -69.5q-71 0 -133 37t-76 109v192q8 -58 48 -97.5t84 -53.5q41 -13 81 -13h6q68 2 123 32t78 83l35 82h-144z" />
<glyph unicode="z" horiz-adv-x="1003" d="M82 850v174h860v-276l-727 -574h727v-174h-850v287l727 563h-737z" />
<glyph unicode="&#xa1;" />
<glyph unicode="&#xa3;" horiz-adv-x="1146" d="M82 0v266q124 6 196.5 67t86.5 169h-140v174h144v174h-144v174h162q104 535 719 512v-184q-429 19 -510 -328h244v-174h-267v-174h267v-174h-271q-25 -214 -225 -318h762v-184h-1024z" />
<glyph unicode="&#xad;" horiz-adv-x="901" d="M164 512v205h614v-205h-614z" />
<glyph unicode="&#xb7;" />
<glyph unicode="&#xbf;" />
<glyph unicode="&#xe9;" horiz-adv-x="1208" d="M102 512q0 82 17.5 158.5t57 147.5t97.5 123t145.5 83t194.5 31t196 -33t148.5 -90t97.5 -131.5t50 -158.5t0 -171h-809q0 -139 90 -233.5t227 -94.5q112 0 197.5 58t85.5 147h205q0 -73 -36 -141.5t-98.5 -121t-152 -84.5t-190.5 -32q-126 0 -227.5 44t-165 120t-97 173 t-33.5 206zM303 635h629q0 101 -94.5 178.5t-223.5 77.5q-128 0 -214 -73t-97 -183zM473 1188l246 348h225l-287 -348h-184z" />
<glyph unicode="&#xf3;" horiz-adv-x="1208" d="M102 512q0 109 33 206t94.5 172.5t158.5 120t216 44.5t216 -44.5t158.5 -120t94.5 -172.5t33 -206t-33 -206t-94.5 -172.5t-158.5 -120t-216 -44.5t-216 44.5t-158.5 120t-94.5 172.5t-33 206zM297 512q0 -165 90.5 -272t216.5 -107t216.5 107t90.5 272t-90.5 272 t-216.5 107t-216.5 -107t-90.5 -272zM485 1188l246 348h225l-286 -348h-185z" />
<glyph unicode="&#x2000;" horiz-adv-x="798" />
<glyph unicode="&#x2001;" horiz-adv-x="1597" />
<glyph unicode="&#x2002;" horiz-adv-x="798" />
<glyph unicode="&#x2003;" horiz-adv-x="1597" />
<glyph unicode="&#x2004;" horiz-adv-x="532" />
<glyph unicode="&#x2005;" horiz-adv-x="399" />
<glyph unicode="&#x2006;" horiz-adv-x="266" />
<glyph unicode="&#x2007;" horiz-adv-x="266" />
<glyph unicode="&#x2008;" horiz-adv-x="199" />
<glyph unicode="&#x2009;" horiz-adv-x="319" />
<glyph unicode="&#x200a;" horiz-adv-x="88" />
<glyph unicode="&#x2010;" horiz-adv-x="901" d="M164 512v205h614v-205h-614z" />
<glyph unicode="&#x2011;" horiz-adv-x="901" d="M164 512v205h614v-205h-614z" />
<glyph unicode="&#x2012;" horiz-adv-x="901" d="M164 512v205h614v-205h-614z" />
<glyph unicode="&#x2013;" horiz-adv-x="1433" d="M164 512v205h1106v-205h-1106z" />
<glyph unicode="&#x2014;" horiz-adv-x="1884" d="M0 512v205h1884v-205h-1884z" />
<glyph unicode="&#x2018;" horiz-adv-x="573" d="M164 1065v307q0 81 45.5 122.5t118.5 41.5h143v-102h-143q-62 0 -62 -62v-61l62 61h82v-307h-246z" />
<glyph unicode="&#x2019;" horiz-adv-x="573" d="M102 1065v102h144q61 0 61 62v61l-61 -61h-82v307h246v-307q0 -81 -45.5 -122.5t-118.5 -41.5h-144z" />
<glyph unicode="&#x201c;" horiz-adv-x="901" d="M164 1065v307q0 81 45.5 122.5t118.5 41.5h102v-102h-102q-62 0 -62 -62v-61l62 61h82v-307h-246zM492 1065v307q0 81 45 122.5t118 41.5h144v-102h-144q-61 0 -61 -62v-61l61 61h82v-307h-245z" />
<glyph unicode="&#x201d;" horiz-adv-x="901" d="M102 1065v102h144q61 0 61 62v61l-61 -61h-82v307h246v-307q0 -81 -45.5 -122.5t-118.5 -41.5h-144zM471 1065v102h102q62 0 62 62v61l-62 -61h-81v307h245v-307q0 -81 -45.5 -122.5t-118.5 -41.5h-102z" />
<glyph unicode="&#x2022;" />
<glyph unicode="&#x2026;" horiz-adv-x="1720" d="M164 0v287h246v-287h-246zM737 0v287h246v-287h-246zM1311 0v287h245v-287h-245z" />
<glyph unicode="&#x202f;" horiz-adv-x="319" />
<glyph unicode="&#x205f;" horiz-adv-x="399" />
<glyph unicode="&#x25fc;" horiz-adv-x="1024" d="M0 0v1024h1024v-1024h-1024z" />
</font>
</defs>
</svg>
